<?xml version="1.0" encoding="UTF-8"?>
<svg id="Layer_2" data-name="Layer 2" xmlns="http://www.w3.org/2000/svg" viewBox="0 0 1070.22 1074.09">
  <defs>
    <style>
      .cls-1 {
        fill: currentColor;
      }
    </style>
  </defs>
  <g id="Layer_1-2" data-name="Layer 1">
    <path class="cls-1" d="M1070.22,979.26v-441.25c-1.3-101.9-25.49-193.53-72.57-274.81l-149.02,80.31c31.6,57.43,47.42,122.26,47.42,194.5s-15.81,135.17-47.42,192.56c-31.63,57.43-74.51,102.58-128.7,135.47-54.19,32.9-116.12,49.36-185.79,49.36s-128.39-16.46-183.85-49.36c-55.49-32.89-99.03-78.04-130.63-135.47-31.63-57.39-47.42-121.59-47.42-192.56s15.79-137.07,47.42-194.5c31.6-57.39,75.15-102.57,130.63-135.47,55.46-32.9,116.75-49.35,183.85-49.35V0c-100.64,0-191.29,23.56-271.91,70.64-80.65,47.11-144.51,110.97-191.6,191.6C23.53,342.88,0,434.81,0,538.01s21.92,193.53,65.8,274.82c43.85,81.29,103.84,145.15,179.98,191.6,76.11,46.45,162.56,69.67,259.33,69.67s178.35-22.57,252.56-67.74c51.57-31.39,95.64-71.08,132.57-118.69v186.43h179.98v-94.83Z"/>
  </g>
</svg>
