<svg id="Layer_1" data-name="Layer 1" xmlns="http://www.w3.org/2000/svg" viewBox="0 0 1920 1080">
  <defs>
    <style>
      .cls-1 {
        fill: #f2b453;
        font-family: Poppins-Medium, Poppins;
        font-size: 106.26px;
        font-weight: 500;
      }
      .cls-2 {
        fill: #2c2c2c;
      }
    </style>
  </defs>
  <path class="cls-2" d="M840.3,380.71c-6.59,0-12.24-2.37-16.98-7.11-4.74-4.74-7.11-10.53-7.11-17.37s2.43-12.57,7.31-17.18c4.87-4.6,10.6-6.91,17.18-6.91s11.91,2.31,16.78,6.91c4.87,4.61,7.3,10.33,7.3,17.18s-2.37,12.63-7.11,17.37c-4.74,4.74-10.54,7.11-17.38,7.11"/>
  <path class="cls-2" d="M1229.89,380.71c-6.59,0-12.24-2.37-16.98-7.11-4.74-4.74-7.11-10.53-7.11-17.37s2.43-12.57,7.31-17.18c4.87-4.6,10.6-6.91,17.18-6.91s11.91,2.31,16.78,6.91c4.87,4.61,7.3,10.33,7.3,17.18s-2.37,12.63-7.11,17.37c-4.74,4.74-10.54,7.11-17.38,7.11"/>
  <path class="cls-2" d="M468.28,621.22v-90.04c-.26-20.79-5.2-39.49-14.81-56.08l-30.41,16.39c6.45,11.72,9.68,24.95,9.68,39.69s-3.23,27.58-9.68,39.3c-6.45,11.72-15.2,20.93-26.26,27.64-11.06,6.71-23.7,10.07-37.92,10.07s-26.2-3.36-37.52-10.07c-11.33-6.71-20.21-15.93-26.66-27.64-6.45-11.71-9.67-24.81-9.67-39.3s3.22-27.97,9.67-39.69c6.45-11.71,15.34-20.93,26.66-27.64,11.32-6.71,23.82-10.07,37.52-10.07v-32.38c-20.54,0-39.04,4.81-55.49,14.41-16.46,9.61-29.49,22.64-39.10,39.10-9.61,16.46-14.41,35.22-14.41,56.28s4.48,39.49,13.43,56.08c8.95,16.59,21.19,29.62,36.73,39.10,15.53,9.48,33.17,14.22,52.92,14.22s36.4-4.6,51.54-13.82c10.52-6.41,19.52-14.5,27.05-24.22v38.04h36.73v-19.35Z"/>
  <rect class="cls-2" x="574.52" y="432.44" width="50.55" height="31.19"/>
  <rect class="cls-2" x="538.18" y="463.63" width="36.33" height="176.93"/>
  <path class="cls-2" d="M625.06,332.13v33.18c-10.54,0-19.54,2.37-27.06,7.11-7.49,4.74-13.3,11.39-17.38,19.93-4.08,8.56-6.12,18.65-6.12,30.22v9.88h-36.33v-7.11c0-18.7,3.55-35.01,10.65-48.97,7.11-13.96,17.2-24.82,30.22-32.59,13.04-7.77,28.36-11.64,46.01-11.64"/>
  <rect class="cls-2" x="696.35" y="432.44" width="50.55" height="31.19"/>
  <rect class="cls-2" x="1360.22" y="432.44" width="50.55" height="31.19"/>
  <rect class="cls-2" x="660.02" y="463.63" width="36.33" height="176.93"/>
  <path class="cls-2" d="M746.9,332.13v33.18c-10.54,0-19.54,2.37-27.06,7.11-7.49,4.74-13.3,11.39-17.38,19.93-4.08,8.56-6.12,18.65-6.12,30.22v9.88h-36.33v-7.11c0-18.7,3.55-35.01,10.65-48.97,7.11-13.96,17.2-24.82,30.22-32.59,13.04-7.77,28.36-11.64,46.01-11.64"/>
  <rect class="cls-2" x="822.13" y="420.58" width="36.73" height="219.99"/>
  <rect class="cls-2" x="1211.72" y="420.58" width="36.73" height="219.99"/>
  <polygon class="cls-2" points="1653.4 418.21 1525.12 722.31 1485.27 722.31 1532.12 611.25 1438.95 418.53 1479.6 418.21 1551.13 566.17 1614.66 415.54 1653.4 418.21"/>
  <path class="cls-2" d="M1135.89,521.7v118.87h-36.72v-118.87c0-.48,0-.96-.02-1.43-.03-4.02-.28-7.84-.71-11.46-.02-.05-.02-.11-.04-.16-4.79-30.83-31.44-54.41-63.61-54.41-35.55,0-64.37,28.82-64.37,64.38v121.95h-36.33v-208.12h36.33v16.46c6.32-6.56,13.67-12.13,22.12-16.66,13.94-7.51,29.61-11.26,46.99-11.26,18.42,0,34.88,3.89,49.37,11.65,14.48,7.77,25.92,19.16,34.35,34.16,8.43,15.01,12.64,33.32,12.64,54.91"/>
  <rect class="cls-2" x="1324.27" y="380.7" width="35.95" height="51.74"/>
  <path class="cls-2" d="M1394.98,603.05v35.93c-13.43,0-25.55-3.35-36.34-10.07-10.8-6.73-19.23-15.8-25.27-27.26-6.06-11.45-9.10-24.54-9.10-39.29v-98.73h35.95v98.73c0,11.85,3.29,21.6,9.86,29.22,6.57,7.64,14.88,11.46,24.89,11.46"/>
  <text class="cls-1" transform="translate(249.88 789.03)"><tspan x="0" y="0">Technology</tspan></text>
</svg>
